<?xml version="1.0" encoding="utf-8"?>
<!-- Generator: Adobe Illustrator 25.4.0, SVG Export Plug-In . SVG Version: 6.00 Build 0)  -->
<svg version="1.1" id="Layer_1" xmlns="http://www.w3.org/2000/svg" xmlns:xlink="http://www.w3.org/1999/xlink" x="0px" y="0px"
	 viewBox="0 0 20 21" style="enable-background:new 0 0 20 21;" xml:space="preserve">
<path d="M14.9,3.9c-0.2,0-0.4,0.1-0.6,0.2c-0.2,0.1-0.3,0.3-0.4,0.5c-0.1,0.2-0.1,0.5-0.1,0.7c0,0.2,0.2,0.4,0.3,0.6
	c0.2,0.2,0.4,0.3,0.6,0.3c0.2,0,0.5,0,0.7-0.1c0.2-0.1,0.4-0.2,0.5-0.4S16,5.3,16,5.1c0-0.2,0-0.3-0.1-0.5c-0.1-0.1-0.1-0.3-0.2-0.4
	C15.6,4.1,15.4,4,15.3,4C15.1,3.9,15,3.9,14.9,3.9z"/>
<path d="M9.8,5.4c-0.9,0-1.9,0.3-2.7,0.8C6.3,6.8,5.7,7.5,5.4,8.4C5,9.4,4.9,10.3,5.1,11.3c0.2,1,0.6,1.8,1.3,2.5
	c0.7,0.7,1.5,1.2,2.5,1.4c0.9,0.2,1.9,0.1,2.8-0.3c0.9-0.4,1.6-1,2.1-1.8c0.5-0.8,0.8-1.8,0.8-2.8c0-1.3-0.5-2.6-1.4-3.5
	C12.3,5.9,11.1,5.4,9.8,5.4z M9.8,13.5c-0.6,0-1.2-0.2-1.7-0.5c-0.5-0.3-0.9-0.8-1.1-1.4C6.7,11,6.7,10.3,6.8,9.7
	c0.1-0.6,0.4-1.2,0.8-1.6c0.4-0.4,1-0.7,1.6-0.9s1.2-0.1,1.8,0.2c0.6,0.2,1,0.6,1.4,1.2c0.3,0.5,0.5,1.1,0.5,1.8
	c0,0.4-0.1,0.8-0.2,1.2c-0.2,0.4-0.4,0.7-0.7,1c-0.3,0.3-0.6,0.5-1,0.7C10.6,13.4,10.2,13.5,9.8,13.5L9.8,13.5z"/>
<path d="M13.6,20.4H5.8c-1.5,0-3-0.6-4.1-1.8C0.6,17.5,0,16,0,14.4v-8c0-1.6,0.6-3.1,1.7-4.3c1.1-1.1,2.6-1.8,4.1-1.8h7.8
	c1.5,0,3,0.6,4.1,1.8c1.1,1.1,1.7,2.7,1.7,4.3v8c0,1.6-0.6,3.1-1.7,4.3C16.6,19.8,15.1,20.4,13.6,20.4z M5.8,2.2
	C4.8,2.2,3.8,2.6,3,3.4C2.3,4.2,1.8,5.2,1.8,6.3v8c0,1.1,0.4,2.2,1.2,2.9c0.8,0.8,1.8,1.2,2.8,1.2h7.8c1.1,0,2.1-0.4,2.8-1.2
	c0.8-0.8,1.2-1.8,1.2-2.9v-8c0-1.1-0.4-2.2-1.2-2.9c-0.8-0.8-1.8-1.2-2.8-1.2L5.8,2.2z"/>
</svg>
