<svg xmlns="http://www.w3.org/2000/svg" viewBox="0 0 52.3 14.8"><g id="Layer_2" data-name="Layer 2"><g id="Layer_1-2" data-name="Layer 1"><path d="M0,0H2V14.6H0Z"/><path d="M7.1,5.7A4,4,0,0,1,9.9,4.6a4.9,4.9,0,0,1,3.5,1.7,5.44,5.44,0,0,1,.9,3.5v4.8H12.4V9.7a3.34,3.34,0,0,0-.6-2.3,2.46,2.46,0,0,0-2-1A3.43,3.43,0,0,0,7.1,7.8v6.7H5.2V4.8H7.1Z"/><path d="M15.4,4.8h2l2.8,6.7L23,4.8h2l-4.1,9.8H19.6L15.4,4.8Z"/><path d="M27.5,10.1a3.17,3.17,0,0,0,3.1,3,3.33,3.33,0,0,0,2.7-1.3L34.5,13a5.06,5.06,0,0,1-4,1.8,4.89,4.89,0,0,1-4.9-5.1c0-2.9,1.9-5.1,4.6-5.1s4.6,2.2,4.6,5.1v.4Zm.2-1.7h5.2a2.75,2.75,0,0,0-2.5-2.1A2.79,2.79,0,0,0,27.7,8.4Z"/><path d="M37.3,12a4.73,4.73,0,0,0,2.8,1.1c.8,0,1.7-.5,1.7-1.2,0-1.1-1.6-1.2-3-1.7-1.2-.4-2.2-1.1-2.2-2.5,0-2.1,1.8-3.1,3.5-3.1a4.61,4.61,0,0,1,3.1,1.1l-1,1.4a3.18,3.18,0,0,0-2-.8c-.9,0-1.7.5-1.7,1.2s.7.9,1.7,1.1c1.5.4,3.4,1.1,3.4,3.1s-1.7,3-3.5,3a5.56,5.56,0,0,1-3.8-1.4l1-1.3Z"/><path d="M52.3,14.6a6.05,6.05,0,0,1-1.5.2,3.39,3.39,0,0,1-2.7-1.1,3.54,3.54,0,0,1-.8-2.6V6.6H44.9V4.8h2.4V2.1h1.9V4.8h3V6.6h-3v4.6c0,.5,0,1,.3,1.2a1.9,1.9,0,0,0,1.3.5,3.08,3.08,0,0,0,1-.1l.5,1.8Z"/></g></g></svg>