<?xml version="1.0" encoding="utf-8"?>
<!-- Generator: Adobe Illustrator 25.4.0, SVG Export Plug-In . SVG Version: 6.00 Build 0)  -->
<svg version="1.1" id="Layer_1" xmlns="http://www.w3.org/2000/svg" xmlns:xlink="http://www.w3.org/1999/xlink" x="0px" y="0px"
	 viewBox="0 0 52.3 15" style="enable-background:new 0 0 52.3 15;" xml:space="preserve">
<g id="Layer_1-2">
	<path d="M0,0.4h2V15H0V0.4z"/>
	<path d="M7.1,6.1C7.9,5.4,8.9,5,9.9,5c1.4,0.1,2.6,0.7,3.5,1.7c0.7,1,1,2.3,0.9,3.5V15h-1.9v-4.9c0.1-0.8-0.1-1.6-0.6-2.3
		c-0.5-0.6-1.2-1-2-1c-1.1,0-2.1,0.5-2.7,1.4v6.7H5.2V5.2h1.9V6.1z"/>
	<path d="M15.4,5.2h2l2.8,6.7L23,5.2h2L20.9,15h-1.3L15.4,5.2z"/>
	<path d="M27.5,10.3c0.1,1.7,1.4,3,3.1,3c1.1,0,2.1-0.5,2.7-1.3l1.2,1.2c-1,1.2-2.5,1.8-4,1.8c-2.7,0-4.9-2.2-4.9-4.9
		c0-0.1,0-0.1,0-0.2c0-2.9,1.9-5.1,4.6-5.1s4.6,2.2,4.6,5.1v0.4H27.5z M27.7,8.6h5.2c-0.3-1.2-1.3-2-2.5-2.1
		C29.1,6.5,28,7.4,27.7,8.6z"/>
	<path d="M37.3,12.3c0.8,0.7,1.8,1,2.8,1.1c0.8,0,1.7-0.5,1.7-1.2c0-1.1-1.6-1.2-3-1.7c-1.2-0.4-2.2-1.1-2.2-2.5
		c0-2.1,1.8-3.1,3.5-3.1c1.1,0,2.2,0.4,3.1,1.1l-1,1.4c-0.6-0.5-1.3-0.8-2-0.8c-0.9,0-1.7,0.5-1.7,1.2s0.7,0.9,1.7,1.1
		c1.5,0.4,3.4,1.1,3.4,3.1s-1.7,3-3.5,3c-1.4,0-2.8-0.5-3.8-1.4C36.3,13.6,37.3,12.3,37.3,12.3z"/>
	<path d="M52.3,14.8c-0.5,0.1-1,0.2-1.5,0.2c-1,0.1-2-0.3-2.7-1.1c-0.6-0.7-0.9-1.7-0.8-2.6V6.8h-2.4V5h2.4V2.3h1.9V5h3v1.8h-3v4.6
		c0,0.5,0,1,0.3,1.2c0.4,0.3,0.8,0.5,1.3,0.5c0.3,0,0.7,0,1-0.1C51.8,13,52.3,14.8,52.3,14.8z"/>
</g>
</svg>
