<?xml version="1.0" encoding="utf-8"?>
<!-- Generator: Adobe Illustrator 25.4.0, SVG Export Plug-In . SVG Version: 6.00 Build 0)  -->
<svg version="1.1" id="Layer_1" xmlns="http://www.w3.org/2000/svg" xmlns:xlink="http://www.w3.org/1999/xlink" x="0px" y="0px"
	 viewBox="0 0 20 20" style="enable-background:new 0 0 20 20;" xml:space="preserve">
<g id="XMLID_801_">
	<path id="XMLID_802_" d="M4.6,6.4h-4c-0.2,0-0.3,0.1-0.3,0.3v12.9c0,0.2,0.1,0.3,0.3,0.3h4c0.2,0,0.3-0.1,0.3-0.3V6.7
		C4.9,6.6,4.8,6.4,4.6,6.4z"/>
	<path id="XMLID_803_" d="M2.6,0C1.1,0,0,1.2,0,2.7c0,1.5,1.2,2.7,2.7,2.7c1.5,0,2.7-1.2,2.7-2.7C5.3,1.2,4.1,0,2.6,0z"/>
	<path id="XMLID_804_" d="M14.9,6.1c-1.6,0-2.8,0.7-3.5,1.5V6.7c0-0.2-0.1-0.3-0.3-0.3H7.1C7,6.4,6.8,6.6,6.8,6.7v12.9
		C6.8,19.9,7,20,7.1,20h4c0.2,0,0.3-0.1,0.3-0.3v-6.4c0-2.2,0.6-3,2.1-3c1.6,0,1.8,1.3,1.8,3.1v6.3c0,0.2,0.1,0.3,0.3,0.3h4
		c0.2,0,0.3-0.1,0.3-0.3v-7.1C20,9.4,19.4,6.1,14.9,6.1z"/>
</g>
</svg>
