<?xml version="1.0" encoding="utf-8"?>
<!-- Generator: Adobe Illustrator 25.4.0, SVG Export Plug-In . SVG Version: 6.00 Build 0)  -->
<svg version="1.1" id="Layer_1" xmlns="http://www.w3.org/2000/svg" xmlns:xlink="http://www.w3.org/1999/xlink" x="0px" y="0px"
	 viewBox="0 0 174 15" style="enable-background:new 0 0 174 15;" xml:space="preserve">
<style type="text/css">
	.st0{clip-path:url(#SVGID_00000085965881658686866660000007742417154583464887_);}
</style>
<g>
	<defs>
		<rect id="SVGID_1_" y="0" width="174" height="15"/>
	</defs>
	<clipPath id="SVGID_00000112613620287261599200000016044906115987059131_">
		<use xlink:href="#SVGID_1_"  style="overflow:visible;"/>
	</clipPath>
	<g style="clip-path:url(#SVGID_00000112613620287261599200000016044906115987059131_);">
		<path d="M1.4,11.1c0.8,1,2,1.9,3.5,1.9c1.3,0,2.5-0.9,2.5-2.2c0-2.2-3-2.5-4.9-3.8c-1-0.7-1.8-1.7-1.8-3.2C0.6,1.7,2.5,0,4.9,0
			c1.8,0,3,0.8,3.8,1.5L7.5,3C6.7,2.3,5.9,2,5,2c-1.2,0-2.3,0.7-2.3,2c0,1.9,3,2.2,4.8,3.5c0.9,0.6,1.8,1.7,1.8,3.3
			c0,2.6-1.9,4.2-4.4,4.2C3,15,1.3,14.1,0,12.6L1.4,11.1L1.4,11.1z"/>
		<path d="M20.8,14.8h-2.6L13.5,10v4.8h-1.9V0h1.9v8.8l4-3.8h2.7l-4.7,4.4L20.8,14.8z"/>
		<path d="M28.8,13.9C28,14.6,27,15,25.9,15c-0.9,0-1.7-0.2-2.4-0.6c-1.4-0.9-2.4-2.5-2.4-4.5c0-2,1-3.6,2.4-4.5
			C24.2,5,25,4.8,25.8,4.8c1.1,0,2.1,0.3,3,1.1V5h1.9v9.8h-1.9V13.9L28.8,13.9z M28.7,8.1c-0.6-0.8-1.6-1.4-2.7-1.4
			c-1.8,0-3,1.5-3,3.2c0,1.7,1.3,3.2,3.1,3.2c1,0,2-0.5,2.6-1.4V8.1L28.7,8.1z"/>
		<path d="M35.6,14.8h-1.9V0h1.9v5.9c0.9-0.7,1.9-1.1,2.9-1.1c0.9,0,1.7,0.2,2.3,0.6c1.4,0.9,2.4,2.5,2.4,4.5c0,2-1,3.6-2.4,4.5
			c-0.6,0.4-1.5,0.6-2.4,0.6c-1.1,0-2.2-0.4-2.9-1.1V14.8L35.6,14.8z M35.7,11.7c0.6,0.9,1.6,1.4,2.6,1.4c1.8,0,3.1-1.5,3.1-3.2
			c0-1.7-1.2-3.2-3-3.2c-1.2,0-2.1,0.6-2.7,1.4V11.7L35.7,11.7z"/>
		<path d="M47.6,5.9c0.5-0.5,1.5-1.1,2.8-1.1c1.4,0,2.6,0.7,3.5,1.7c0.6,0.8,0.9,1.8,0.9,3.5v4.8h-1.9V9.9c0-1.2-0.2-1.8-0.6-2.3
			c-0.4-0.6-1.2-1-2-1c-1.2,0-2.2,0.7-2.7,1.4v6.7h-1.9V0h1.9V5.9z"/>
		<path d="M61.9,4.8c2.8,0,4.9,2.2,4.9,5.1c0,2.9-2.1,5.1-4.9,5.1S57,12.8,57,9.9C57,7,59.1,4.8,61.9,4.8z M61.9,13.1
			c1.8,0,3-1.4,3-3.2s-1.2-3.2-3-3.2c-1.8,0-3,1.4-3,3.2S60.1,13.1,61.9,13.1z"/>
		<path d="M69.2,0h1.9v14.8h-1.9V0z"/>
		<path d="M76.1,5v0.9c0.4-0.4,1.5-1.1,2.8-1.1c1.4,0,2.6,0.6,3.3,1.6c0.9-0.9,1.9-1.6,3.6-1.6c1.4,0,2.6,0.6,3.4,1.6
			C89.8,7.2,90,8.1,90,9.8v5h-1.9V9.5c0-1-0.2-1.5-0.5-2c-0.4-0.5-1.1-0.9-1.8-0.9c-1.4,0-2.3,0.7-2.9,1.4c0.1,0.5,0.2,1,0.2,1.7v5
			h-1.9V9.5c0-1-0.2-1.5-0.5-2c-0.4-0.5-1.1-0.9-1.8-0.9c-1.2,0-2.1,0.7-2.7,1.4v6.7h-1.9V5H76.1z"/>
		<path d="M94.2,10.3c0.1,1.6,1.4,3,3.1,3c1.4,0,2.2-0.7,2.7-1.3l1.2,1.2c-0.7,0.9-2.1,1.8-4,1.8c-2.8,0-4.9-2.2-4.9-5.1
			c0-2.9,1.9-5.1,4.6-5.1s4.6,2.2,4.6,5.1c0,0.1,0,0.2,0,0.4H94.2z M94.3,8.6h5.2c-0.3-1.2-1.4-2.1-2.5-2.1
			C95.7,6.5,94.6,7.4,94.3,8.6z"/>
		<path d="M105.8,5.9c0.5-0.5,1.5-1.1,2.8-1.1s2.6,0.7,3.4,1.7c0.6,0.8,0.9,1.8,0.9,3.5v4.8h-1.9V9.9c0-1.2-0.2-1.8-0.6-2.3
			c-0.4-0.6-1.2-1-2-1c-1.2,0-2.2,0.7-2.7,1.4v6.7h-1.9V5h1.9V5.9z"/>
		<path d="M121.7,0.2h2v14.6h-2V0.2z"/>
		<path d="M128.8,5.9c0.5-0.5,1.5-1.1,2.8-1.1s2.6,0.7,3.5,1.7c0.6,0.8,0.9,1.8,0.9,3.5v4.8h-1.9V9.9c0-1.2-0.2-1.8-0.6-2.3
			c-0.4-0.6-1.2-1-2-1c-1.2,0-2.2,0.7-2.7,1.4v6.7h-1.9V5h1.9V5.9z"/>
		<path d="M137.1,5h2l2.8,6.7l2.8-6.7h2l-4.1,9.8h-1.3L137.1,5L137.1,5z"/>
		<path d="M149.2,10.3c0.1,1.6,1.4,3,3.1,3c1.4,0,2.2-0.7,2.7-1.3l1.2,1.2c-0.7,0.9-2.1,1.8-4,1.8c-2.8,0-4.9-2.2-4.9-5.1
			c0-2.9,1.9-5.1,4.6-5.1s4.6,2.2,4.6,5.1c0,0.1,0,0.2,0,0.4H149.2z M149.4,8.6h5.2c-0.3-1.2-1.4-2.1-2.5-2.1
			C150.8,6.5,149.7,7.4,149.4,8.6z"/>
		<path d="M159,12.2c0.9,0.7,1.9,1.1,2.8,1.1c0.8,0,1.7-0.5,1.7-1.2c0-1.1-1.6-1.2-3-1.7c-1.2-0.4-2.2-1.1-2.2-2.5
			c0-2.1,1.8-3.1,3.5-3.1c1.4,0,2.4,0.5,3.1,1.1l-1,1.4c-0.6-0.5-1.3-0.8-2-0.8c-0.9,0-1.7,0.5-1.7,1.2c0,0.7,0.7,0.9,1.7,1.1
			c1.5,0.4,3.4,1.1,3.4,3.1c0,1.9-1.7,3-3.5,3c-1.5,0-2.8-0.5-3.8-1.4L159,12.2L159,12.2z"/>
		<path d="M174,14.8c-0.4,0.1-0.9,0.2-1.5,0.2c-1.2,0-2.1-0.4-2.7-1.1c-0.6-0.6-0.8-1.5-0.8-2.6V6.8h-2.4V5h2.4V2.3h1.9V5h3v1.8h-3
			v4.6c0,0.5,0,1,0.3,1.2c0.3,0.3,0.8,0.5,1.3,0.5c0.3,0,0.8,0,1-0.1L174,14.8L174,14.8z"/>
	</g>
</g>
</svg>
