<svg xmlns="http://www.w3.org/2000/svg" viewBox="0 0 112.9 15"><g id="Layer_2" data-name="Layer 2"><g id="Layer_1-2" data-name="Layer 1"><path d="M1.4,11.1A4.58,4.58,0,0,0,4.9,13a2.36,2.36,0,0,0,2.5-2.2c0-2.2-3-2.5-4.9-3.8A3.79,3.79,0,0,1,.7,3.8C.6,1.7,2.5,0,4.9,0A5.58,5.58,0,0,1,8.7,1.5L7.5,3A3.64,3.64,0,0,0,5,2,2.08,2.08,0,0,0,2.7,4c0,1.9,3,2.2,4.8,3.5a3.92,3.92,0,0,1,1.8,3.3A4.1,4.1,0,0,1,4.9,15,6.46,6.46,0,0,1,0,12.6l1.4-1.5Z"/><path d="M20.8,14.8H18.2L13.5,10v4.8H11.6V0h1.9V8.8l4-3.8h2.7L15.5,9.4Z"/><path d="M28.8,13.9A4.36,4.36,0,0,1,25.9,15a4.75,4.75,0,0,1-2.4-.6,5.27,5.27,0,0,1-2.4-4.5,5.27,5.27,0,0,1,2.4-4.5,4.65,4.65,0,0,1,2.3-.6,4.3,4.3,0,0,1,3,1.1V5h1.9v9.8H28.8v-.9Zm-.1-5.8A3.45,3.45,0,0,0,26,6.7a3.05,3.05,0,0,0-3,3.2,3.11,3.11,0,0,0,5.7,1.8V8.1Z"/><path d="M35.6,14.8H33.7V0h1.9V5.9a4.77,4.77,0,0,1,2.9-1.1,4.14,4.14,0,0,1,2.3.6,5.27,5.27,0,0,1,2.4,4.5,5.27,5.27,0,0,1-2.4,4.5,4.5,4.5,0,0,1-2.4.6,4.17,4.17,0,0,1-2.9-1.1v.9Zm.1-3.1a3.11,3.11,0,0,0,5.7-1.8,3.05,3.05,0,0,0-3-3.2,3.31,3.31,0,0,0-2.7,1.4v3.6Z"/><path d="M47.6,5.9a4,4,0,0,1,2.8-1.1,4.72,4.72,0,0,1,3.5,1.7,5.44,5.44,0,0,1,.9,3.5v4.8H52.9V9.9a3.34,3.34,0,0,0-.6-2.3,2.46,2.46,0,0,0-2-1A3.43,3.43,0,0,0,47.6,8v6.7H45.7V0h1.9Z"/><path d="M61.9,4.8a4.89,4.89,0,0,1,4.9,5.1,4.9,4.9,0,1,1-9.8,0A4.89,4.89,0,0,1,61.9,4.8Zm0,8.3a3,3,0,0,0,3-3.2,3,3,0,1,0-6,0A3,3,0,0,0,61.9,13.1Z"/><path d="M69.2,0h1.9V14.8H69.2Z"/><path d="M76.1,5v.9a4.31,4.31,0,0,1,2.8-1.1,3.94,3.94,0,0,1,3.3,1.6,4.7,4.7,0,0,1,3.6-1.6,4.27,4.27,0,0,1,3.4,1.6A5.17,5.17,0,0,1,90,9.8v5H88.1V9.5a3.44,3.44,0,0,0-.5-2,2.43,2.43,0,0,0-1.8-.9A3.69,3.69,0,0,0,82.9,8a7.93,7.93,0,0,1,.2,1.7v5H81.2V9.5a3.44,3.44,0,0,0-.5-2,2.43,2.43,0,0,0-1.8-.9A3.59,3.59,0,0,0,76.2,8v6.7H74.3V5Z"/><path d="M94.2,10.3a3.17,3.17,0,0,0,3.1,3A3.33,3.33,0,0,0,100,12l1.2,1.2a5.06,5.06,0,0,1-4,1.8,4.89,4.89,0,0,1-4.9-5.1c0-2.9,1.9-5.1,4.6-5.1s4.6,2.2,4.6,5.1v.4Zm.1-1.7h5.2A2.75,2.75,0,0,0,97,6.5,2.79,2.79,0,0,0,94.3,8.6Z"/><path d="M105.8,5.9a4,4,0,0,1,2.8-1.1A4.52,4.52,0,0,1,112,6.5a5.44,5.44,0,0,1,.9,3.5v4.8H111V9.9a3.34,3.34,0,0,0-.6-2.3,2.46,2.46,0,0,0-2-1A3.43,3.43,0,0,0,105.7,8v6.7h-1.9V5h1.9v.9Z"/></g></g></svg>