<?xml version="1.0" encoding="utf-8"?>
<!-- Generator: Adobe Illustrator 25.4.0, SVG Export Plug-In . SVG Version: 6.00 Build 0)  -->
<svg version="1.1" id="Layer_1" xmlns="http://www.w3.org/2000/svg" xmlns:xlink="http://www.w3.org/1999/xlink" x="0px" y="0px"
	 viewBox="0 0 21.6 15" style="enable-background:new 0 0 21.6 15;" xml:space="preserve">
<style type="text/css">
	.st0{fill:#0066A6;}
	.st1{display:none;}
</style>
<g id="Layer_2_00000110447257826271258270000008633157663138633608_">
	<g id="Layer_1-2">
		<path class="st0" d="M1.4,11.1c0.8,1.1,2.1,1.8,3.5,1.9c1.3,0.1,2.4-0.9,2.5-2.2c0-2.2-3-2.5-4.9-3.8C1.4,6.3,0.7,5.1,0.7,3.8
			C0.6,1.7,2.5,0,4.9,0c1.4,0,2.8,0.5,3.8,1.5L7.5,3C6.8,2.4,5.9,2,5,2C3.9,1.9,2.8,2.7,2.7,3.8c0,0.1,0,0.1,0,0.2
			c0,1.9,3,2.2,4.8,3.5c1.1,0.7,1.8,2,1.8,3.3c0.1,2.3-1.7,4.1-4,4.2c-0.1,0-0.3,0-0.4,0C3,15,1.2,14.1,0,12.6L1.4,11.1z"/>
		<path class="st0" d="M19.1,14.9h-2.6l-4.7-4.8v4.8H9.9V0.1h1.9v8.8l4-3.8h2.7l-4.7,4.4L19.1,14.9z"/>
		<path class="st1" d="M19.6,0h2v15h-2V0z"/>
	</g>
</g>
</svg>
