<?xml version="1.0" encoding="utf-8"?>
<!-- Generator: Adobe Illustrator 25.4.0, SVG Export Plug-In . SVG Version: 6.00 Build 0)  -->
<svg version="1.1" id="Layer_1" xmlns="http://www.w3.org/2000/svg" xmlns:xlink="http://www.w3.org/1999/xlink" x="0px" y="0px"
	 viewBox="0 0 18 16" style="enable-background:new 0 0 18 16;" xml:space="preserve">
<path d="M17.9,2.2c-0.6,0.3-1.2,0.4-1.8,0.5c0.3-0.1,0.7-0.6,0.9-0.8c0.3-0.3,0.5-0.7,0.6-1.2c0,0,0-0.1,0-0.1c0,0,0,0,0,0s0,0,0,0
	c-0.7,0.4-1.4,0.7-2.2,0.9c0,0-0.1,0-0.1,0c0,0-0.1,0-0.1,0c-0.1-0.1-0.1-0.1-0.2-0.2c-0.3-0.3-0.7-0.5-1-0.7
	c-0.5-0.2-1.1-0.3-1.6-0.3c-0.5,0-1.1,0.2-1.5,0.4c-0.5,0.3-0.9,0.6-1.2,1.1C9.3,2.3,9,2.8,8.9,3.4C8.8,3.9,8.7,4.5,8.8,5
	c0,0.1,0,0.1-0.1,0.1c-3-0.4-5.4-1.6-7.4-4c-0.1-0.1-0.1-0.1-0.2,0C0.3,2.5,0.7,4.7,1.8,5.8C1.9,6,2.1,6.1,2.2,6.3
	c-0.5,0-1-0.2-1.4-0.4c-0.1-0.1-0.1,0-0.1,0.1c0,0.1,0,0.3,0,0.4C0.8,7,1,7.7,1.5,8.3c0.4,0.6,1,1,1.6,1.3c0.2,0.1,0.3,0.1,0.5,0.1
	C3,9.8,2.6,9.8,2.1,9.7C2,9.7,2,9.8,2,9.9c0.6,1.8,2,2.3,2.9,2.6c0.1,0,0.3,0,0.4,0.1c0,0,0,0,0,0c-0.3,0.5-1.5,0.9-2,1.1
	c-1,0.4-2,0.5-3.1,0.4c-0.2,0-0.2,0-0.2,0c0,0,0,0.1,0,0.1c0.2,0.1,0.4,0.3,0.6,0.4c0.6,0.4,1.3,0.7,2,0.9c3.7,1.1,7.8,0.3,10.6-2.6
	c2.2-2.3,2.9-5.4,2.9-8.5c0-0.1,0.1-0.2,0.2-0.3c0.5-0.4,1-1,1.4-1.6C18,2.4,18,2.3,17.9,2.2C18,2.2,18,2.2,17.9,2.2z"/>
</svg>
